# xmcd
# 
# Track frame offsets:
#   150
#   18305
#   36420
#   51717
#   68345
#   88602
#   103935
#   121595
#   133740
#   150687
#   168050
#   188962
#   203422
#   221795
#   240595
# 
# Disc length: 3404 seconds
# 
# Revision: 2
# Processed by: cddbd v1.5.1PL2 Copyright (c) Steve Scherf et al.
# Submitted via: Synapstar 1.0 
# 
DISCID=cb0d4a0f
DTITLE=Various Artist - MM6324
DYEAR=1900
DGENRE=Country
TTITLE0=Jo Dee Messina - Burn
TTITLE1=Lee Ann Womack - Ashes By Now
TTITLE2=Alabama - Where It All Goes South
TTITLE3=Toby Keith - You Shouldn't Kiss Me Like This
TTITLE4=Shedaisey - Lucky For You (Tonight I'm Just Me)
TTITLE5=Tim McGraw - Things Change
TTITLE6=Tim Rushlow - She Misses Him
TTITLE7=Eric Heatherly - Wrong 5 O'Clock
TTITLE8=Diamond Rio - One More Day
TTITLE9=Bryan White - How Long
TTITLE10=Keith Urban - But For The Grace Of God
TTITLE11=Neal Coty - Legacy
TTITLE12=Faith Hill - There Will Come A Day
TTITLE13=Jessica Andrews - Who I Am
TTITLE14=Garth Brooks - Wild Horses
EXTD=MediaType: Karaoke CD+G Producer: Music Maestro
EXTT0=
EXTT1=
EXTT2=
EXTT3=
EXTT4=
EXTT5=
EXTT6=
EXTT7=
EXTT8=
EXTT9=
EXTT10=
EXTT11=
EXTT12=
EXTT13=
EXTT14=
PLAYORDER=
